<svg width="16" height="20" viewBox="0 0 16 20" fill="none" xmlns="http://www.w3.org/2000/svg">
<path d="M13.5939 5.54761H2.4074C2.12615 5.54761 1.85857 5.66577 1.66912 5.87329C1.47967 6.08081 1.38592 6.35815 1.41131 6.63794L2.4992 18.6262C2.55877 19.2747 3.09393 19.7634 3.74432 19.7634H12.257C12.9074 19.7634 13.4426 19.2747 13.5021 18.6262L14.59 6.63794C14.6154 6.35815 14.5217 6.08081 14.3322 5.87329C14.1428 5.66577 13.8752 5.54761 13.5939 5.54761ZM11.5724 17.7634H4.42889L3.50213 7.54761H12.4992L11.5724 17.7634Z" fill="#FFFFFF"/>
<path d="M14.5488 2.8435H11.3197C11.3081 2.81091 11.3102 2.77679 11.2949 2.74487L10.3691 0.805912C10.2031 0.457772 9.85253 0.236572 9.46679 0.236572H6.53417C6.14843 0.236572 5.79784 0.457762 5.63183 0.805912L4.70605 2.74487C4.69079 2.77679 4.69281 2.81091 4.68121 2.8435H1.45215C0.899418 2.8435 0.452148 3.29125 0.452148 3.8435C0.452148 4.39575 0.899418 4.8435 1.45215 4.8435H14.5488C15.1016 4.8435 15.5488 4.39575 15.5488 3.8435C15.5488 3.29125 15.1015 2.8435 14.5488 2.8435ZM7.16502 2.23656H8.83592L9.12584 2.84349H6.87511L7.16502 2.23656Z" fill="#FFFFFF"/>
</svg>
