<?xml version="1.0" encoding="UTF-8"?>
<svg id="Icons" xmlns="http://www.w3.org/2000/svg" version="1.1" viewBox="0 0 20 20">
  <g>
    <circle cx="10.00001" cy="10" r="9.75" style="fill: #9d2a22; stroke-width: 0px;"/>
    <path d="M11.41389,10.00006l3.62628-3.62646c.39062-.39062.39062-1.02344,0-1.41406s-1.02344-.39062-1.41406,0l-3.62622,3.6264-3.62622-3.6264c-.39062-.39062-1.02344-.39062-1.41406,0s-.39062,1.02344,0,1.41406l3.62628,3.62646-3.62628,3.62646c-.39062.39062-.39062,1.02344,0,1.41406.19531.19531.45117.29297.70703.29297s.51172-.09766.70703-.29297l3.62622-3.6264,3.62622,3.6264c.19531.19531.45117.29297.70703.29297s.51172-.09766.70703-.29297c.39062-.39062.39062-1.02344,0-1.41406l-3.62628-3.62646Z" style="fill: #fdfdfb; stroke-width: 0px;"/>
  </g>
</svg>
